<svg t="1612196061686" class="icon" viewBox="0 0 1024 1024" version="1.1" xmlns="http://www.w3.org/2000/svg" p-id="6555" width="50" height="50"><path d="M777.428 1008c0-155-118.813-265.375-265.375-265.375S246.677 853 246.677 1008h530.751z" fill="#FFE477" p-id="6556"></path><path d="M788 1024H227v-16.84c0-77.007 32.274-147.898 84.93-199.605 51.81-50.877 123.355-78.894 198.486-78.894 75.128 0 144.577 28.018 196.387 78.894C759.46 859.268 788 930.153 788 1007.16V1024z m-527.892-30H764c-6.376-141-112.547-239.119-251.946-239.119C372.653 754.881 266.482 853 260.108 994z" fill="" p-id="6557"></path><path d="M253.877 714.317c0-15.043 40.621-19.962 50.105-33.298 8.376-11.778-7.561-46.259 6.929-56.042 12.511-8.447 46.361 14.017 62.594 7.491 14.507-5.832 17.699-43.758 34.593-47.753 15.554-3.678 39.173 27.794 56.3 25.907 16.1-1.774 30.481-37.582 47.601-37.582 17.119 0 31.498 35.808 47.597 37.581 17.128 1.887 40.747-29.585 56.302-25.907 16.895 3.995 20.088 41.921 34.596 47.753 16.235 6.527 50.087-15.936 62.599-7.488 14.489 9.783-1.449 44.262 6.926 56.04 9.483 13.336 50.104 18.255 50.104 33.296 0 15.043-40.621 19.962-50.105 33.298-8.376 11.778 7.561 46.259-6.929 56.041-12.511 8.447-46.361-14.017-62.594-7.491-14.507 5.832-17.699 43.758-34.593 47.752-15.554 3.678-39.173-27.794-56.301-25.907-16.1 1.774-30.48 37.582-47.601 37.582-17.119 0-31.498-35.808-47.597-37.581-17.128-1.887-40.747 29.585-56.302 25.907-16.895-3.995-20.088-41.921-34.595-47.753-16.235-6.527-50.087 15.936-62.599 7.488-14.489-9.783 1.449-44.262-6.926-56.04-9.483-13.333-50.104-18.252-50.104-33.294z" fill="#C90505" p-id="6558"></path><path d="M512 868.718c-15.001 0-25.7-12.691-35.14-23.885-4.11-4.871-10.989-13.029-14.014-13.793-3.869 0.015-13.088 6.635-19.185 11.014-10.471 7.517-21.295 15.291-32.909 15.291-1.933 0-3.843-0.215-5.671-0.651-15.319-3.62-22.072-19.008-28.03-32.591-2.333-5.317-6.235-14.214-8.653-15.855-0.067 0.005-0.692-0.159-2.033-0.159-5.305 0-13.324 2.487-21.08 4.897-9.053 2.815-18.416 5.723-26.774 5.723-5.817 0-10.848-1.405-14.952-4.179-14.652-9.891-12.647-28.571-11.037-43.58 0.554-5.143 1.477-13.742 0.508-16.162-1.746-2.379-12.342-6.768-18.672-9.389-15.752-6.517-33.604-13.906-33.604-31.079 0-17.173 17.855-24.567 33.609-31.089 6.33-2.62 16.924-7.004 18.926-9.819 0.71-1.979-0.21-10.584-0.761-15.721-1.61-15.014-3.615-33.694 11.04-43.59 4.102-2.769 9.132-4.174 14.947-4.174 8.361 0 17.724 2.907 26.779 5.722 7.756 2.41 15.775 4.902 21.077 4.902 1.551 0 2.174-0.231 2.241-0.256 2.169-1.472 6.097-10.419 8.443-15.762 5.956-13.578 12.709-28.966 28.025-32.586a24.47 24.47 0 0 1 5.671-0.651c11.612 0 22.436 7.768 32.904 15.286 6.099 4.379 15.319 10.999 19.231 10.999 2.984-0.749 9.863-8.907 13.973-13.778 9.44-11.194 20.139-23.885 35.143-23.885 15.001 0 25.7 12.686 35.137 23.885 4.11 4.871 10.989 13.029 14.016 13.793 3.871-0.015 13.088-6.635 19.185-11.014 10.471-7.512 21.298-15.286 32.909-15.286 1.936 0 3.843 0.215 5.671 0.651 15.316 3.62 22.07 19.008 28.028 32.586 2.336 5.323 6.238 14.214 8.658 15.86 0.005 0 0.649 0.159 2.025 0.159 5.305 0 13.327-2.492 21.082-4.902 9.055-2.81 18.419-5.722 26.779-5.722 5.815 0 10.842 1.405 14.942 4.174 14.657 9.896 12.655 28.577 11.042 43.585-0.551 5.143-1.474 13.742-0.505 16.162 1.746 2.379 12.34 6.763 18.67 9.389 15.752 6.517 33.607 13.911 33.607 31.084 0 17.173-17.857 24.562-33.609 31.084-6.33 2.62-16.926 7.01-18.926 9.819-0.713 1.984 0.21 10.589 0.761 15.727 1.61 15.014 3.615 33.694-11.04 43.59-4.102 2.769-9.13 4.169-14.945 4.174-8.358 0-17.721-2.913-26.774-5.723-7.756-2.41-15.778-4.902-21.08-4.902-1.554 0-2.179 0.231-2.246 0.256-2.172 1.472-6.097 10.414-8.443 15.757-5.956 13.578-12.709 28.966-28.025 32.586a24.445 24.445 0 0 1-5.671 0.651h-0.005c-11.614 0.005-22.439-7.768-32.907-15.286-6.099-4.379-15.314-10.999-19.224-10.999-2.984 0.749-9.863 8.902-13.973 13.778-9.439 11.193-20.137 23.884-35.141 23.884z m-49.113-63.916c0.995 0 1.982 0.056 2.954 0.159 12.945 1.431 22.169 12.368 31.092 22.951 4.123 4.892 11.776 13.968 15.068 14.547 3.292-0.579 10.948-9.655 15.073-14.552 8.92-10.578 18.144-21.516 31.089-22.946a26.79 26.79 0 0 1 2.954-0.159c12.36 0 23.633 8.097 34.537 15.927 5.371 3.856 14.36 10.312 17.593 10.358 2.477-1.159 7.151-11.809 9.661-17.531 5.356-12.204 10.896-24.828 22.693-29.566 3.553-1.431 7.604-2.154 12.037-2.154 9.289 0 19.244 3.092 28.869 6.081 7.184 2.231 14.611 4.543 18.985 4.543 0.159 0 0.297-0.005 0.418-0.01 1.159-2.877 0.064-13.101-0.536-18.701-1.292-12.045-2.628-24.495 3.946-33.745 6.379-8.963 18.529-13.993 30.279-18.86 4.374-1.81 10.889-4.507 14.878-6.825-3.987-2.323-10.502-5.02-14.875-6.83-11.753-4.866-23.903-9.896-30.279-18.865-6.574-9.245-5.238-21.695-3.946-33.74 0.587-5.466 1.646-15.337 0.382-18.701-0.082 0-0.169-0.005-0.264-0.005-4.376 0-11.804 2.313-18.99 4.543-9.627 2.989-19.583 6.081-28.871 6.081-4.428 0-8.476-0.723-12.032-2.154-11.799-4.743-17.337-17.362-22.693-29.566-2.51-5.722-7.184-16.378-10.096-17.614-2.795 0.123-11.786 6.579-17.157 10.44-10.904 7.825-22.18 15.921-34.54 15.921-0.995 0-1.982-0.056-2.954-0.159-12.947-1.431-22.172-12.368-31.094-22.951-4.153-4.928-11.883-14.096-15.134-14.557-3.113 0.461-10.848 9.63-15.004 14.563-8.92 10.578-18.144 21.516-31.089 22.946a26.79 26.79 0 0 1-2.954 0.159c-12.363 0-23.639-8.097-34.543-15.927-5.371-3.856-14.36-10.312-17.596-10.358-2.469 1.159-7.143 11.809-9.655 17.531-5.356 12.209-10.894 24.828-22.69 29.571-3.556 1.431-7.604 2.154-12.032 2.154-9.289 0-19.242-3.092-28.869-6.081-7.184-2.236-14.611-4.543-18.988-4.543a9.82 9.82 0 0 0-0.418 0.01c-1.164 2.877-0.067 13.101 0.533 18.701 1.292 12.04 2.628 24.49-3.946 33.735-6.379 8.968-18.529 13.999-30.281 18.865-4.371 1.81-10.886 4.507-14.875 6.83 3.987 2.318 10.501 5.015 14.87 6.825 11.753 4.861 23.905 9.896 30.284 18.86 6.574 9.25 5.238 21.7 3.946 33.745-0.587 5.466-1.646 15.342-0.382 18.701 0.082 0.005 0.169 0.005 0.267 0.005 4.374 0 11.801-2.307 18.985-4.538 9.627-2.989 19.58-6.081 28.869-6.081 4.433 0 8.484 0.723 12.04 2.154 11.794 4.738 17.332 17.362 22.687 29.566 2.513 5.722 7.186 16.378 10.099 17.614 2.792-0.123 11.783-6.584 17.157-10.44 10.902-7.831 22.178-15.927 34.538-15.927z" fill="" p-id="6559"></path><path d="M273.552 679.246c0-13.803 40.195-17.535 48.897-29.773 7.686-10.808-9.217-44.388 4.079-53.365 11.48-7.751 44.131 15.338 59.027 9.349 13.312-5.352 15.2-42.867 30.702-46.533 14.273-3.375 36.537 28.331 52.254 26.599 14.774-1.628 27.779-37.359 43.489-37.359 15.709 0 28.713 35.731 43.485 37.358 15.717 1.731 37.982-29.974 52.255-26.6 15.503 3.666 17.392 41.181 30.704 46.533 14.898 5.989 47.55-17.099 59.031-9.347 13.295 8.977-3.609 42.555 4.076 53.363 8.701 12.237 48.896 15.969 48.896 29.772 0 13.803-40.195 17.535-48.897 29.773-7.685 10.808 9.217 44.388-4.079 53.365-11.48 7.751-44.131-15.338-59.027-9.349-13.312 5.352-15.2 42.867-30.702 46.532-14.273 3.375-36.537-28.331-52.254-26.599-14.774 1.628-27.779 37.359-43.489 37.359-15.709 0-28.713-35.731-43.485-37.358-15.717-1.731-37.982 29.974-52.255 26.6-15.503-3.666-17.392-41.181-30.704-46.533-14.898-5.989-47.55 17.099-59.031 9.347-13.295-8.977 3.609-42.555-4.076-53.363-8.702-12.237-48.896-15.968-48.896-29.771z" fill="#FFE477" p-id="6560"></path><path d="M512 823.451c-14.598 0-24.523-12.86-33.279-24.203-3.418-4.425-9.053-11.732-11.878-13.204-3.274 0.508-11.945 7.292-16.657 10.978-10.002 7.83-20.347 15.921-31.702 15.921-1.784 0-3.551-0.205-5.246-0.605-14.924-3.528-20.854-18.896-26.084-32.453-1.815-4.702-4.782-12.394-6.845-14.706a7.23 7.23 0 0 0-0.656-0.026c-4.725 0-12.894 2.892-20.098 5.44-9.479 3.353-18.429 6.522-26.741 6.522-5.256 0-9.845-1.297-13.634-3.856-14.291-9.65-11.476-27.884-9.212-42.539 0.682-4.425 1.795-11.63 1.387-14.491-2.697-2.354-11.95-5.779-17.603-7.871-15.619-5.784-33.325-12.342-33.325-29.115 0-16.773 17.703-23.326 33.322-29.11 5.62-2.082 14.804-5.481 17.611-7.902 0.397-2.882-0.71-10.055-1.392-14.47-2.261-14.65-5.076-32.889 9.217-42.534 3.787-2.559 8.376-3.856 13.632-3.856 8.312 0 17.262 3.169 26.736 6.522 7.207 2.548 15.375 5.44 20.1 5.44 0.274 0 0.492-0.01 0.659-0.026 2.061-2.318 5.028-10.004 6.84-14.706 5.233-13.558 11.163-28.925 26.084-32.453 1.695-0.4 3.459-0.605 5.246-0.605 11.355 0 21.698 8.091 31.702 15.921 4.656 3.641 13.176 10.312 16.711 10.953 2.843-1.538 8.427-8.779 11.822-13.173C487.474 547.9 497.399 535.04 512 535.04c14.601 0 24.526 12.86 33.281 24.208 3.418 4.425 9.055 11.732 11.878 13.204 3.266-0.508 11.94-7.297 16.652-10.983 10.002-7.825 20.347-15.921 31.702-15.921 1.787 0 3.551 0.205 5.246 0.605 14.924 3.528 20.854 18.895 26.087 32.458 1.813 4.697 4.782 12.388 6.843 14.701 0.162 0.015 0.382 0.026 0.656 0.026 4.725 0 12.894-2.892 20.1-5.44 9.479-3.354 18.429-6.522 26.741-6.522 5.256 0 9.845 1.297 13.634 3.856 14.291 9.65 11.476 27.884 9.212 42.539-0.682 4.425-1.795 11.63-1.387 14.491 2.697 2.354 11.953 5.784 17.606 7.876 15.619 5.784 33.322 12.337 33.322 29.11s-17.706 23.331-33.327 29.115c-5.617 2.082-14.796 5.482-17.606 7.897-0.397 2.882 0.71 10.055 1.39 14.465 2.261 14.655 5.076 32.894-9.214 42.544-3.789 2.559-8.373 3.851-13.627 3.856-8.312 0-17.262-3.169-26.741-6.522-7.207-2.554-15.375-5.446-20.1-5.446-0.274 0-0.492 0.01-0.659 0.026-2.061 2.313-5.028 10.004-6.843 14.706-5.23 13.558-11.16 28.925-26.084 32.453-1.692 0.4-3.456 0.605-5.243 0.605h-0.005c-11.353 0-21.695-8.091-31.697-15.916-4.656-3.646-13.181-10.317-16.714-10.958-2.841 1.543-8.425 8.779-11.819 13.178-8.758 11.34-18.683 24.2-33.284 24.2z m-44.754-63.675c0.91 0 1.815 0.046 2.707 0.144 12.653 1.395 21.244 12.527 29.551 23.29 3.325 4.307 9.345 12.106 12.496 13.809 3.151-1.702 9.173-9.502 12.499-13.814 8.307-10.763 16.898-21.89 29.553-23.285a24.982 24.982 0 0 1 2.705-0.144c12.055 0 22.823 8.425 33.24 16.573 4.32 3.384 11.286 8.835 14.76 10.102 2.454-2.687 5.753-11.24 7.597-16.014 4.728-12.255 9.617-24.926 21.195-29.582 3.22-1.297 6.853-1.954 10.799-1.954 9.235 0 19.213 3.533 28.861 6.948 5.815 2.056 12.306 4.359 16.383 4.897 0.364-3.897-0.82-11.573-1.508-16.019-1.833-11.886-3.73-24.177 2.766-33.315 6.238-8.768 17.914-13.091 30.279-17.67 3.248-1.205 7.75-2.872 11.394-4.497-3.641-1.62-8.14-3.287-11.389-4.492-12.365-4.579-24.046-8.902-30.281-17.675-6.499-9.138-4.602-21.429-2.766-33.32 0.685-4.425 1.864-12.055 1.515-15.968-4.346 0.59-10.696 2.836-16.398 4.851-9.648 3.415-19.624 6.948-28.859 6.948-3.943 0-7.576-0.656-10.799-1.954-11.576-4.656-16.465-17.326-21.195-29.576-1.849-4.799-5.169-13.399-7.625-16.05-3.302 1.185-10.371 6.717-14.737 10.132-10.414 8.153-21.185 16.578-33.238 16.578-0.91 0-1.81-0.046-2.702-0.144-12.658-1.4-21.247-12.527-29.551-23.29-3.328-4.307-9.348-12.112-12.499-13.814-3.154 1.702-9.173 9.507-12.501 13.814-8.307 10.763-16.896 21.89-29.548 23.29a25.1 25.1 0 0 1-2.707 0.144c-12.053 0-22.823-8.425-33.24-16.578-4.32-3.379-11.286-8.83-14.763-10.102-2.454 2.692-5.751 11.24-7.594 16.019-4.73 12.25-9.62 24.921-21.195 29.576-3.22 1.297-6.853 1.954-10.799 1.954-9.232 0-19.211-3.533-28.859-6.948-5.815-2.056-12.309-4.353-16.388-4.897-0.364 3.897 0.82 11.568 1.508 16.014 1.836 11.891 3.733 24.182-2.766 33.325-6.235 8.768-17.916 13.091-30.281 17.67-3.248 1.205-7.748 2.872-11.389 4.492 3.643 1.625 8.145 3.292 11.394 4.497 12.363 4.579 24.041 8.902 30.274 17.665 6.502 9.143 4.605 21.434 2.769 33.325-0.685 4.425-1.864 12.055-1.515 15.968 4.346-0.59 10.696-2.836 16.398-4.851 9.648-3.415 19.624-6.948 28.856-6.948 3.946 0 7.579 0.656 10.799 1.954 11.578 4.656 16.468 17.326 21.195 29.582 1.851 4.794 5.169 13.393 7.625 16.044 3.302-1.184 10.371-6.717 14.737-10.132 10.413-8.148 21.184-16.572 33.237-16.572z" fill="" p-id="6561"></path><path d="M314.449 652.023c0-11.228 39.308-12.491 46.387-22.445 6.252-8.792-12.66-40.498-1.845-47.801 9.338-6.305 39.495 18.083 51.612 13.212 10.828-4.353 10.004-41.015 22.614-43.997 11.61-2.745 31.058 29.447 43.842 28.038 12.017-1.324 22.163-36.895 34.942-36.895 12.778 0 22.923 35.571 34.939 36.895 12.785 1.408 32.233-30.783 43.843-28.038 12.61 2.982 11.787 39.643 22.616 43.997 12.119 4.872 42.278-19.514 51.618-13.208 10.814 7.302-8.1 39.007-1.849 47.798 7.077 9.954 46.385 11.217 46.385 22.444 0 11.228-39.308 12.491-46.387 22.446-6.251 8.791 12.66 40.498 1.845 47.8-9.338 6.305-39.495-18.083-51.611-13.212-10.828 4.353-10.004 41.015-22.614 43.997-11.61 2.745-31.058-29.447-43.842-28.038-12.017 1.324-22.163 36.895-34.942 36.895-12.778 0-22.923-35.571-34.939-36.895-12.785-1.409-32.233 30.783-43.843 28.038-12.611-2.982-11.787-39.643-22.616-43.997-12.119-4.872-42.278 19.514-51.618 13.208-10.814-7.302 8.1-39.007 1.85-47.798-7.079-9.954-46.387-11.217-46.387-22.444z" fill="#C90505" p-id="6562"></path><path d="M512 775.036c-13.899 0-22.167-13.306-29.464-25.049-2.025-3.256-5.115-8.23-7.361-10.927-3.21 2.164-8.138 6.851-11.335 9.896-9.396 8.943-18.272 17.388-29.156 17.388h-0.005c-1.518 0-3.025-0.174-4.479-0.518-14.247-3.364-18.39-18.772-22.046-32.371-0.91-3.384-2.29-8.522-3.53-11.568-4.035 1.02-10.63 4.051-15.275 6.184-9.361 4.307-18.203 8.368-26.343 8.368-4.3 0-8.122-1.108-11.363-3.292-13.686-9.24-8.868-27.33-5.351-40.539 0.879-3.307 2.102-7.902 2.551-10.871-3.574-1.59-10.268-3.42-14.604-4.61-15.429-4.215-32.917-8.999-32.917-25.105s17.488-20.89 32.917-25.11c4.335-1.185 11.027-3.015 14.604-4.605-0.461-3.03-1.718-7.753-2.548-10.876-3.518-13.204-8.332-31.294 5.351-40.534 3.238-2.184 7.063-3.297 11.368-3.297 8.138 0 16.98 4.066 26.341 8.368 4.648 2.138 11.248 5.174 15.268 6.194 1.241-3.051 2.623-8.189 3.533-11.578 3.656-13.593 7.797-29.002 22.044-32.366a19.485 19.485 0 0 1 4.482-0.518c10.883 0 19.759 8.445 29.159 17.388 3.197 3.046 8.125 7.733 11.335 9.896 2.246-2.697 5.338-7.671 7.363-10.927 7.297-11.742 15.565-25.049 29.464-25.049s22.167 13.306 29.464 25.049c2.025 3.256 5.115 8.23 7.361 10.927 3.207-2.164 8.138-6.851 11.335-9.896 9.396-8.943 18.275-17.388 29.159-17.388 1.52 0 3.028 0.174 4.482 0.518 14.247 3.364 18.39 18.772 22.044 32.366 0.91 3.389 2.292 8.527 3.533 11.573 4.033-1.02 10.63-4.051 15.275-6.184 9.361-4.307 18.203-8.368 26.343-8.368 4.3 0 8.122 1.108 11.363 3.292 13.686 9.24 8.868 27.331 5.351 40.539-0.879 3.307-2.102 7.902-2.551 10.871 3.577 1.595 10.271 3.425 14.609 4.61 15.427 4.22 32.912 9.004 32.912 25.105 0 16.106-17.488 20.89-32.917 25.11-4.335 1.185-11.027 3.015-14.604 4.605 0.461 3.03 1.718 7.753 2.548 10.876 3.518 13.204 8.332 31.294-5.351 40.534-3.238 2.184-7.066 3.297-11.368 3.297-8.14 0-16.98-4.066-26.341-8.368-4.648-2.138-11.25-5.174-15.268-6.194-1.241 3.051-2.623 8.189-3.533 11.578-3.656 13.594-7.797 29.002-22.044 32.366a19.459 19.459 0 0 1-4.479 0.518c-10.886 0-19.762-8.445-29.161-17.388-3.197-3.046-8.127-7.733-11.335-9.896-2.248 2.697-5.338 7.671-7.363 10.932-7.3 11.737-15.571 25.044-29.467 25.044z m-35.771-63.194c0.764 0 1.523 0.041 2.269 0.123 12.153 1.338 19.362 12.942 26.336 24.167 1.954 3.143 4.851 7.799 7.166 10.727 2.315-2.928 5.21-7.584 7.163-10.727 6.976-11.224 14.188-22.828 26.343-24.167a20.734 20.734 0 0 1 2.266-0.123c11.473 0 21.139 9.199 30.487 18.096 2.459 2.338 6.012 5.717 8.845 7.994 1.251-3.348 2.515-8.05 3.387-11.286 3.336-12.419 6.789-25.254 18.008-29.766 2.633-1.061 5.548-1.595 8.663-1.595 9.009 0 18.893 4.543 28.448 8.938 2.497 1.149 5.874 2.697 8.904 3.933-0.636-2.984-1.523-6.322-2.179-8.789-3.22-12.091-6.261-23.516 0.128-32.504 5.833-8.204 17.319-11.486 29.576-14.839-12.258-3.354-23.744-6.635-29.574-14.84-6.389-8.984-3.348-20.408-0.128-32.499 0.659-2.472 1.546-5.805 2.182-8.794-3.028 1.236-6.407 2.789-8.904 3.938-9.558 4.389-19.442 8.932-28.451 8.932-3.115 0-6.03-0.533-8.666-1.595-11.222-4.512-14.673-17.347-18.011-29.766-0.872-3.241-2.136-7.943-3.387-11.286-2.833 2.272-6.387 5.656-8.845 7.994-9.348 8.897-19.013 18.096-30.489 18.096-0.764 0-1.523-0.041-2.269-0.123-12.15-1.338-19.362-12.942-26.333-24.167-1.954-3.143-4.851-7.799-7.166-10.727-2.318 2.928-5.212 7.584-7.166 10.727-6.976 11.224-14.186 22.828-26.341 24.167-0.746 0.082-1.502 0.123-2.266 0.123-11.473 0-21.139-9.199-30.487-18.096-2.459-2.338-6.012-5.717-8.845-7.994-1.251 3.348-2.515 8.05-3.387 11.286-3.336 12.419-6.789 25.254-18.008 29.766-2.633 1.061-5.548 1.595-8.663 1.595-9.009 0-18.893-4.543-28.451-8.938-2.497-1.149-5.874-2.697-8.902-3.933 0.636 2.989 1.523 6.322 2.179 8.789 3.22 12.091 6.261 23.516-0.128 32.504-5.833 8.204-17.321 11.486-29.582 14.84 12.26 3.353 23.746 6.635 29.579 14.839 6.389 8.984 3.348 20.408 0.128 32.499-0.659 2.471-1.546 5.805-2.182 8.794 3.028-1.236 6.407-2.789 8.904-3.938 9.558-4.389 19.442-8.932 28.451-8.932 3.115 0 6.03 0.533 8.666 1.595 11.219 4.512 14.67 17.347 18.008 29.761 0.872 3.241 2.136 7.943 3.389 11.291 2.833-2.277 6.387-5.656 8.845-7.994 9.352-8.897 19.017-18.096 30.49-18.096z" fill="" p-id="6563"></path><path d="M104.031 469.815c0-48.25 25.707-90.148 50.566-130.665 21.093-34.382 41.018-66.857 41.018-99.316 0-126.44 135.915-221.858 316.386-222.365 180.469 0.507 316.385 95.926 316.385 222.365 0 32.459 19.924 64.934 41.018 99.316 24.858 40.517 50.566 82.415 50.566 130.665 0 100.153-50.045 166.743-148.736 197.944h-121.33v-12.983c33.296-44.8 51.618-106.331 51.618-174.11a381.69 381.69 0 0 0-2.55-44.084c36.752-41.896 56.927-94.712 56.927-149.366 0-128.664-107.688-202.47-242.966-202.47-135.279 0-247.709 73.806-247.709 202.47 0 54.65 20.176 107.468 56.925 149.366a383.11 383.11 0 0 0-2.548 44.084c0 67.781 18.322 129.312 51.615 174.111v12.982H252.77c-98.695-31.201-148.739-97.791-148.739-197.944z" fill="#C90505" p-id="6564"></path><path d="M773.258 680.886H636.777v-30.453l2.592-3.487c31.615-42.544 49.026-101.595 49.026-166.28a368.9 368.9 0 0 0-2.461-42.56l-0.677-5.794 3.846-4.384c34.609-39.457 53.669-89.427 53.669-140.714 0-130.792-115.437-189.339-229.84-189.339-112.981 0-234.581 59.25-234.581 189.339 0 51.287 19.06 101.256 53.666 140.714l3.843 4.379-0.672 5.789a370.269 370.269 0 0 0-2.461 42.57c0 64.686 17.411 123.741 49.023 166.28l2.592 3.487v30.453H250.745l-1.931-0.61C144.033 647.151 90.905 576.343 90.905 469.816c0-51.964 26.69-95.462 52.502-137.529 20.108-32.781 39.081-63.711 39.081-92.452 0-133.725 141.644-234.965 329.476-235.494 187.904 0.528 329.548 101.769 329.548 235.494 0 28.746 18.975 59.681 39.065 92.431 25.826 42.088 52.518 85.591 52.518 137.55 0 106.522-53.128 177.335-157.907 210.46l-1.93 0.61z m-107.156-26.253h103.084c91.344-29.53 137.655-91.703 137.655-184.817 0-44.544-24.721-84.837-48.628-123.797-22.095-36.022-42.955-70.029-42.955-106.184 0-118.798-130.389-208.753-303.294-209.24-172.833 0.487-303.222 90.442-303.222 209.24 0 36.15-20.854 70.152-42.934 106.148-23.928 38.996-48.649 79.284-48.649 123.833 0 93.113 46.313 155.286 137.658 184.817h100.2c-31.366-46.236-48.544-107.568-48.544-173.967 0-13.276 0.677-26.654 2.013-39.857-36.406-43.529-56.389-97.846-56.389-153.594 0-126.936 107.258-215.593 260.835-215.593 153.176 0 256.094 86.642 256.094 215.593 0 55.753-19.983 110.06-56.389 153.594a396.056 396.056 0 0 1 2.013 39.857c-0.002 66.398-17.179 127.73-48.548 173.967z" fill="" p-id="6565"></path><path d="M511.22 379.986m-309.411 0a309.411 309.411 0 1 0 618.822 0 309.411 309.411 0 1 0-618.822 0Z" fill="#F8EDD2" p-id="6566"></path><path d="M511.221 702.525c-177.848 0-322.538-144.693-322.538-322.541S333.372 57.448 511.221 57.448s322.538 144.688 322.538 322.536-144.69 322.541-322.538 322.541z m0-618.823c-163.373 0-296.285 132.909-296.285 296.282s132.912 296.287 296.285 296.287 296.285-132.914 296.285-296.287S674.593 83.702 511.221 83.702z" fill="" p-id="6567"></path><path d="M348.307 551.178s-13.281-10.33 0-29.513c13.281-19.184 29.513-10.33 29.513-10.33s60.503 59.027 135.762 59.027 129.859-44.27 129.859-44.27 18.2-10.822 31.973 2.459c3.286 3.169 11.534 13.029 3.443 24.595-17.799 25.444-76.151 65.422-160.356 65.422-122.481-0.001-170.194-67.39-170.194-67.39z" fill="#C90505" p-id="6568"></path><path d="M518.502 631.691c-119.465 0-171.818-61.122-179.863-71.531-8.568-8.015-15.183-25.659-1.126-45.964 10.858-15.686 24.213-18.029 31.21-18.029 8.286 0 14.27 3.036 15.386 3.646l1.584 0.867 1.292 1.261c0.559 0.538 57.768 55.292 126.597 55.292 69.798 0 121.082-40.924 121.593-41.339l1.556-1.082c1.033-0.615 10.432-6.004 22.293-6.004 9.702 0 18.521 3.564 25.505 10.301 9.412 9.055 16.398 25.387 5.087 41.56-19.973 28.55-82.021 71.022-171.114 71.022z m-161.914-90.739l1.977 1.251 0.456 1.39c1.79 2.471 46.036 61.845 159.481 61.845 78.502 0 133.422-36.688 149.6-59.814 0.92-1.318 2.461-3.523-1.792-7.615-2.115-2.041-4.361-2.948-7.286-2.948-3.643 0-7.133 1.477-8.386 2.072-8.466 6.548-62.976 46.354-137.055 46.354-72.71 0-131.212-50.118-142.89-60.84a9.142 9.142 0 0 0-1.969-0.226c-3.3 0-6.538 2.261-9.622 6.717-3.645 5.261-4.547 9.537-2.514 11.814z" fill="" p-id="6569"></path><path d="M511.995 521.795c47.543 0 86.219-38.674 86.219-86.209s-38.676-86.209-86.219-86.209c-47.533 0-86.209 38.674-86.209 86.209s38.676 86.209 86.209 86.209z" fill="#C90505" p-id="6570"></path><path d="M511.995 534.922c-54.774 0-99.336-44.56-99.336-99.333s44.562-99.338 99.336-99.338c54.779 0 99.346 44.565 99.346 99.338s-44.567 99.333-99.346 99.333z m0-172.418c-40.298 0-73.082 32.786-73.082 73.085s32.784 73.08 73.082 73.08c40.304 0 73.092-32.781 73.092-73.08s-32.789-73.085-73.092-73.085z" fill="" p-id="6571"></path><path d="M496.366 410.989m-21.643 0a21.643 21.643 0 1 0 43.286 0 21.643 21.643 0 1 0-43.286 0Z" fill="#FFFFFF" p-id="6572"></path></svg>